<svg xmlns="http://www.w3.org/2000/svg" width="1000" height="1000" viewBox="0 0 1000 1000">
  <defs>
    <style>
      .cls-1 {
        fill: #27009b;
        stroke: #000;
        stroke-width: 2px;
      }

      .cls-1, .cls-2 {
        fill-rule: evenodd;
      }

      .cls-2 {
        fill: #fff;
      }
    </style>
  </defs>
  <path class="cls-1" d="M200,622L442,257l44,65-32,46-15-18L255,622m51,0,61,1L551,353,731,622l61-1L546,261ZM506,446l30-47L683,621H625Z"/>
  <path id="Sound_light_equipment" data-name="Sound &amp; light equipment" class="cls-2" d="M160.088,648.624a7.569,7.569,0,0,0-7.583-7.584H125.671a7.569,7.569,0,0,0-7.583,7.584v8.983a7.569,7.569,0,0,0,7.583,7.584h26.834a1.294,1.294,0,0,1,1.283,1.283v8.983a1.294,1.294,0,0,1-1.283,1.284H125.671a1.294,1.294,0,0,1-1.283-1.284v-2.45h-6.3v2.45a7.568,7.568,0,0,0,7.583,7.584h26.834a7.568,7.568,0,0,0,7.583-7.584v-8.983a7.568,7.568,0,0,0-7.583-7.583H125.671a1.3,1.3,0,0,1-1.283-1.284v-8.983a1.3,1.3,0,0,1,1.283-1.284h26.834a1.3,1.3,0,0,1,1.283,1.284v2.45h6.3v-2.45Zm13.533,0.583a7.568,7.568,0,0,0-7.583,7.584v18.666a7.568,7.568,0,0,0,7.583,7.584h19.25a7.569,7.569,0,0,0,7.584-7.584V656.791a7.569,7.569,0,0,0-7.584-7.584h-19.25Zm19.25,6.3a1.3,1.3,0,0,1,1.284,1.284v18.666a1.3,1.3,0,0,1-1.284,1.284h-19.25a1.294,1.294,0,0,1-1.283-1.284V656.791a1.294,1.294,0,0,1,1.283-1.284h19.25Zm40.892-6.3v26.25a1.294,1.294,0,0,1-1.283,1.284H213.229a1.294,1.294,0,0,1-1.283-1.284v-26.25h-6.3v26.25a7.568,7.568,0,0,0,7.583,7.584H232.48a7.568,7.568,0,0,0,7.583-7.584v-26.25h-6.3Zm39.317,0H246.246v33.834h6.3v-26.25a1.294,1.294,0,0,1,1.283-1.284H273.08a1.294,1.294,0,0,1,1.283,1.284v26.25h6.3v-26.25A7.568,7.568,0,0,0,273.08,649.207Zm40.075-11.083v11.083H292.621a7.568,7.568,0,0,0-7.583,7.584v18.666a7.568,7.568,0,0,0,7.583,7.584h26.834V638.124h-6.3Zm-20.534,38.617a1.294,1.294,0,0,1-1.283-1.284V656.791a1.294,1.294,0,0,1,1.283-1.284h19.25a1.3,1.3,0,0,1,1.284,1.284v18.666a1.3,1.3,0,0,1-1.284,1.284h-19.25Zm91.992-4.259v-9.625h-6.3v7.175l-27.067-13.65v-7.7a1.294,1.294,0,0,1,1.283-1.283H375.28a1.294,1.294,0,0,1,1.283,1.283v2.8h6.3V647.34a7.758,7.758,0,0,0-7.583-6.3H352.529a7.569,7.569,0,0,0-7.583,7.584v6.066c0,1.634.233,3.5,1.458,4.434-2.508,0-3.791,2.8-3.791,4.433v11.9a7.568,7.568,0,0,0,7.583,7.584H377.03a7.455,7.455,0,0,0,7-4.725l7.992,4.55V676.8ZM350.2,676.741a1.294,1.294,0,0,1-1.283-1.284v-11.9a1.294,1.294,0,0,1,1.283-1.283h0.642l27.3,13.767a1.237,1.237,0,0,1-1.108.7H350.2Zm63.992-19.95h0v18.666a7.568,7.568,0,0,0,7.583,7.584h6.3v-6.3h-6.3a1.294,1.294,0,0,1-1.283-1.284V638.124h-6.3v18.667Zm18.2,26.25h6.3V649.207h-6.3v33.834Zm0-44.917v6.3h6.3v-6.3h-6.3ZM478.3,670.149V656.791a7.568,7.568,0,0,0-7.583-7.584h-19.25a7.569,7.569,0,0,0-7.584,7.584v18.666a7.569,7.569,0,0,0,7.584,7.584H472v5.833a1.3,1.3,0,0,1-1.283,1.284H449.829v6.3h20.884a7.569,7.569,0,0,0,7.583-7.584V670.149Zm-26.833,6.592a1.3,1.3,0,0,1-1.284-1.284V656.791a1.3,1.3,0,0,1,1.284-1.284h19.25A1.294,1.294,0,0,1,472,656.791v18.666a1.294,1.294,0,0,1-1.283,1.284h-19.25Zm59.85-27.534H490.779V638.124h-6.3v44.917h6.3v-26.25a1.3,1.3,0,0,1,1.284-1.284h19.25a1.294,1.294,0,0,1,1.283,1.284v26.25h6.3v-26.25A7.606,7.606,0,0,0,511.313,649.207Zm32.258,6.3v-6.3H529.688V638.124h-6.3v18.667h0v18.666a7.568,7.568,0,0,0,7.583,7.584h12.6v-6.3h-12.6a1.294,1.294,0,0,1-1.283-1.284v-19.95h13.883Zm47.367-6.3h-19.25a7.569,7.569,0,0,0-7.584,7.584v18.666a7.569,7.569,0,0,0,7.584,7.584h26.833v-6.3H571.688a1.3,1.3,0,0,1-1.284-1.284v-6.183h28.117V656.791A7.568,7.568,0,0,0,590.938,649.207ZM570.4,662.974v-6.183a1.3,1.3,0,0,1,1.284-1.284h19.25a1.294,1.294,0,0,1,1.283,1.284v6.183H570.4Zm32.259-6.183v18.666a7.568,7.568,0,0,0,7.583,7.584H630.78v13.417h6.3V649.207H610.246A7.568,7.568,0,0,0,602.663,656.791Zm6.3,0a1.294,1.294,0,0,1,1.283-1.284H629.5a1.3,1.3,0,0,1,1.284,1.284v18.666a1.3,1.3,0,0,1-1.284,1.284h-19.25a1.294,1.294,0,0,1-1.283-1.284V656.791Zm62.475-7.584v26.25a1.294,1.294,0,0,1-1.283,1.284H650.9a1.294,1.294,0,0,1-1.283-1.284v-26.25h-6.3v26.25a7.568,7.568,0,0,0,7.583,7.584h19.251a7.568,7.568,0,0,0,7.583-7.584v-26.25h-6.3ZM683.8,683.041h6.3V649.207h-6.3v33.834Zm0-44.917v6.3h6.3v-6.3h-6.3Zm38.151,11.083H695.121v47.251h6.3V683.041h20.534a7.568,7.568,0,0,0,7.583-7.584V656.791A7.568,7.568,0,0,0,721.955,649.207Zm1.283,26.25a1.294,1.294,0,0,1-1.283,1.284H702.7a1.294,1.294,0,0,1-1.283-1.284V656.791a1.294,1.294,0,0,1,1.283-1.284h19.251a1.294,1.294,0,0,1,1.283,1.284v18.666Zm53.842-26.25H733.854v33.834h6.3v-26.25a1.3,1.3,0,0,1,1.284-1.284h13.417a1.294,1.294,0,0,1,1.283,1.284v26.25h6.3v-26.25a1.294,1.294,0,0,1,1.283-1.284H777.08a1.309,1.309,0,0,1,1.342,1.284v26.25h6.241v-26.25A7.568,7.568,0,0,0,777.08,649.207Zm40.483,0h-19.25a7.569,7.569,0,0,0-7.584,7.584v18.666a7.569,7.569,0,0,0,7.584,7.584h26.833v-6.3H798.313a1.3,1.3,0,0,1-1.284-1.284v-6.183h28.117V656.791A7.568,7.568,0,0,0,817.563,649.207Zm-20.534,13.767v-6.183a1.3,1.3,0,0,1,1.284-1.284h19.25a1.294,1.294,0,0,1,1.283,1.284v6.183H797.029Zm61.076-13.767H831.271v33.834h6.3v-26.25a1.294,1.294,0,0,1,1.283-1.284h19.251a1.294,1.294,0,0,1,1.283,1.284v26.25h6.3v-26.25A7.568,7.568,0,0,0,858.105,649.207Zm33.891,6.3v-6.3H878.113V638.124h-6.3v18.667h0v18.666a7.568,7.568,0,0,0,7.583,7.584H892v-6.3H879.4a1.294,1.294,0,0,1-1.283-1.284v-19.95H892Z"/>
  <path id="BSL_" data-name="BSL  " class="cls-2" d="M453.958,617.228q8.734,0,13.733-2.5a18.468,18.468,0,0,0,7.992-8.025,26.518,26.518,0,0,0,2.994-12.834,22.072,22.072,0,0,0-3.309-12.4,17.861,17.861,0,0,0-9.051-7.119,18.74,18.74,0,0,0,6.811-7.136,20.562,20.562,0,0,0,2.418-9.989,21.749,21.749,0,0,0-2.805-10.924,18.009,18.009,0,0,0-7.2-7.273q-4.4-2.334-11.934-2.333H428.8v80.529h25.159ZM437.533,546.2H450.8q7.209,0,9.989,1.1a8.907,8.907,0,0,1,4.457,3.983,14.181,14.181,0,0,1,1.679,7.224,13,13,0,0,1-1.844,7.388,10,10,0,0,1-5.255,3.873,28.832,28.832,0,0,1-7.981.769H437.533V546.2Zm0,33.838h15.3q6.768,0,9.932,1.455a11.216,11.216,0,0,1,5.035,4.615,14.9,14.9,0,0,1,1.871,7.718,15.788,15.788,0,0,1-1.953,8.212,10.975,10.975,0,0,1-5.695,4.7,24.1,24.1,0,0,1-8.034.988H437.533V580.04Zm57.706,31.2q7.278,7.362,19.528,7.361a28.282,28.282,0,0,0,13.431-2.963A21.78,21.78,0,0,0,537.014,607a24.953,24.953,0,0,0,3.241-12.593,22.468,22.468,0,0,0-3.083-11.99,22.241,22.241,0,0,0-9.122-8.111q-3.954-1.986-13.726-4.691-9.993-2.757-12.85-5.45t-2.857-7.58a10.766,10.766,0,0,1,3.9-8.6q3.9-3.322,11.316-3.323,7.3,0,11.344,3.79t4.7,11.646l8.4-.769a27.481,27.481,0,0,0-3.269-12.8,20.691,20.691,0,0,0-8.569-8.349,27.223,27.223,0,0,0-12.881-2.912q-10.713,0-17.029,6.208t-6.317,15.985a21.165,21.165,0,0,0,2.2,9.75,19.364,19.364,0,0,0,6.152,7.114q3.956,2.8,13.294,5.574,10.491,3.105,13.65,4.8a11.774,11.774,0,0,1,4.724,4.359,12.03,12.03,0,0,1,1.566,6.221,12.589,12.589,0,0,1-4.312,9.895q-4.314,3.809-12.113,3.809a20.9,20.9,0,0,1-9.777-2.252,16.822,16.822,0,0,1-6.675-5.961q-2.335-3.707-2.993-10.354l-8.24.879Q487.961,603.88,495.239,611.241Zm97.641,5.987v-9.5H560.36V536.7h-8.734v80.529H592.88Z"/>
</svg>
