<svg xmlns="http://www.w3.org/2000/svg" width="800" height="490" viewBox="0 0 800 490">
  <defs>
    <style>
      .cls-1 {
        fill: #fff;
        stroke-linejoin: round;
        stroke-width: 1px;
      }

      .cls-1, .cls-2 {
        stroke: #000;
        fill-rule: evenodd;
      }

      .cls-2 {
        fill: #27009b;
        stroke-width: 2px;
      }
    </style>
  </defs>
  <path id="Sound_light_equipment" data-name="Sound &amp; light equipment" class="cls-1" d="M55.407,423.88a7.568,7.568,0,0,0-7.583-7.583H20.99a7.568,7.568,0,0,0-7.583,7.583v8.984a7.568,7.568,0,0,0,7.583,7.583H47.824a1.294,1.294,0,0,1,1.283,1.283v8.984A1.294,1.294,0,0,1,47.824,452H20.99a1.294,1.294,0,0,1-1.283-1.283v-2.45h-6.3v2.45A7.568,7.568,0,0,0,20.99,458.3H47.824a7.568,7.568,0,0,0,7.583-7.583V441.73a7.568,7.568,0,0,0-7.583-7.583H20.99a1.294,1.294,0,0,1-1.283-1.283V423.88A1.294,1.294,0,0,1,20.99,422.6H47.824a1.294,1.294,0,0,1,1.283,1.283v2.45h6.3v-2.45Zm13.533,0.583a7.569,7.569,0,0,0-7.584,7.584v18.667A7.568,7.568,0,0,0,68.94,458.3H88.19a7.568,7.568,0,0,0,7.584-7.583V432.047a7.569,7.569,0,0,0-7.584-7.584H68.94Zm19.25,6.3a1.294,1.294,0,0,1,1.283,1.283v18.667A1.294,1.294,0,0,1,88.19,452H68.94a1.294,1.294,0,0,1-1.283-1.283V432.047a1.294,1.294,0,0,1,1.283-1.283H88.19Zm40.892-6.3v26.251A1.3,1.3,0,0,1,127.8,452h-19.25a1.294,1.294,0,0,1-1.283-1.283V424.463h-6.3v26.251a7.568,7.568,0,0,0,7.583,7.583H127.8a7.569,7.569,0,0,0,7.584-7.583V424.463h-6.3Zm39.316,0H141.565V458.3h6.3v-26.25a1.294,1.294,0,0,1,1.283-1.283H168.4a1.3,1.3,0,0,1,1.284,1.283V458.3h6.3v-26.25A7.569,7.569,0,0,0,168.4,424.463Zm40.075-11.083v11.083H187.94a7.569,7.569,0,0,0-7.584,7.584v18.667a7.569,7.569,0,0,0,7.584,7.583h26.833V413.38h-6.3ZM187.94,452a1.3,1.3,0,0,1-1.284-1.283V432.047a1.3,1.3,0,0,1,1.284-1.283h19.25a1.294,1.294,0,0,1,1.283,1.283v18.667A1.294,1.294,0,0,1,207.19,452H187.94Zm91.992-4.258v-9.625h-6.3v7.175l-27.067-13.65v-7.7a1.294,1.294,0,0,1,1.283-1.283H270.6a1.3,1.3,0,0,1,1.284,1.283v2.8h6.3V422.6a7.758,7.758,0,0,0-7.584-6.3h-22.75a7.568,7.568,0,0,0-7.583,7.583v6.067c0,1.633.233,3.5,1.458,4.433-2.508,0-3.792,2.8-3.792,4.434v11.9a7.569,7.569,0,0,0,7.584,7.583h26.833a7.457,7.457,0,0,0,7-4.725l7.991,4.55v-6.066ZM245.515,452a1.3,1.3,0,0,1-1.284-1.283v-11.9a1.3,1.3,0,0,1,1.284-1.284h0.641l27.3,13.767a1.236,1.236,0,0,1-1.109.7H245.515Zm63.991-19.95h0v18.667a7.569,7.569,0,0,0,7.584,7.583h6.3V452h-6.3a1.3,1.3,0,0,1-1.284-1.283V413.38h-6.3v18.667Zm18.2,26.25h6.3V424.463h-6.3V458.3Zm0-44.917v6.3h6.3v-6.3h-6.3Zm45.909,32.025V432.047a7.569,7.569,0,0,0-7.583-7.584H346.781a7.569,7.569,0,0,0-7.583,7.584v18.667a7.568,7.568,0,0,0,7.583,7.583h20.534v5.834a1.294,1.294,0,0,1-1.283,1.283H345.148v6.3h20.884a7.568,7.568,0,0,0,7.583-7.583V445.405ZM346.781,452a1.294,1.294,0,0,1-1.283-1.283V432.047a1.294,1.294,0,0,1,1.283-1.283h19.251a1.294,1.294,0,0,1,1.283,1.283v18.667A1.294,1.294,0,0,1,366.032,452H346.781Zm59.851-27.534H386.1V413.38h-6.3V458.3h6.3v-26.25a1.294,1.294,0,0,1,1.283-1.283h19.251a1.294,1.294,0,0,1,1.283,1.283V458.3h6.3v-26.25A7.606,7.606,0,0,0,406.632,424.463Zm32.258,6.3v-6.3H425.006V413.38h-6.3v18.667h0v18.667a7.569,7.569,0,0,0,7.584,7.583h12.6V452h-12.6a1.3,1.3,0,0,1-1.284-1.283v-19.95H438.89Zm47.367-6.3H467.006a7.569,7.569,0,0,0-7.583,7.584v18.667a7.568,7.568,0,0,0,7.583,7.583H493.84V452H467.006a1.294,1.294,0,0,1-1.283-1.283V444.53H493.84V432.047A7.569,7.569,0,0,0,486.257,424.463ZM465.723,438.23v-6.183a1.294,1.294,0,0,1,1.283-1.283h19.251a1.294,1.294,0,0,1,1.283,1.283v6.183H465.723Zm32.258-6.183v18.667a7.569,7.569,0,0,0,7.584,7.583H526.1v13.417h6.3V424.463H505.565A7.569,7.569,0,0,0,497.981,432.047Zm6.3,0a1.3,1.3,0,0,1,1.284-1.283h19.25a1.294,1.294,0,0,1,1.283,1.283v18.667A1.294,1.294,0,0,1,524.815,452h-19.25a1.3,1.3,0,0,1-1.284-1.283V432.047Zm62.476-7.584v26.251A1.3,1.3,0,0,1,565.473,452h-19.25a1.294,1.294,0,0,1-1.283-1.283V424.463h-6.3v26.251a7.568,7.568,0,0,0,7.583,7.583h19.25a7.569,7.569,0,0,0,7.584-7.583V424.463h-6.3ZM579.123,458.3h6.3V424.463h-6.3V458.3Zm0-44.917v6.3h6.3v-6.3h-6.3Zm38.15,11.083H590.44v47.251h6.3V458.3h20.533a7.569,7.569,0,0,0,7.584-7.583V432.047A7.569,7.569,0,0,0,617.273,424.463Zm1.284,26.251A1.3,1.3,0,0,1,617.273,452h-19.25a1.294,1.294,0,0,1-1.283-1.283V432.047a1.294,1.294,0,0,1,1.283-1.283h19.25a1.3,1.3,0,0,1,1.284,1.283v18.667ZM672.4,424.463H629.173V458.3h6.3v-26.25a1.294,1.294,0,0,1,1.283-1.283h13.417a1.3,1.3,0,0,1,1.284,1.283V458.3h6.3v-26.25a1.294,1.294,0,0,1,1.283-1.283H672.4a1.307,1.307,0,0,1,1.341,1.283V458.3h6.242v-26.25A7.569,7.569,0,0,0,672.4,424.463Zm40.483,0H693.631a7.569,7.569,0,0,0-7.583,7.584v18.667a7.568,7.568,0,0,0,7.583,7.583h26.834V452H693.631a1.294,1.294,0,0,1-1.283-1.283V444.53h28.117V432.047A7.569,7.569,0,0,0,712.882,424.463ZM692.348,438.23v-6.183a1.294,1.294,0,0,1,1.283-1.283h19.251a1.294,1.294,0,0,1,1.283,1.283v6.183H692.348Zm61.075-13.767H726.59V458.3h6.3v-26.25a1.294,1.294,0,0,1,1.283-1.283h19.25a1.3,1.3,0,0,1,1.284,1.283V458.3h6.3v-26.25A7.569,7.569,0,0,0,753.423,424.463Zm33.892,6.3v-6.3H773.431V413.38h-6.3v18.667h0v18.667a7.569,7.569,0,0,0,7.584,7.583h12.6V452h-12.6a1.3,1.3,0,0,1-1.284-1.283v-19.95h13.884Z"/>
  <path id="BSL" class="cls-1" d="M384.011,347.065a19.218,19.218,0,0,0-3.327-5.859,18.361,18.361,0,0,0-4.913-4.12,19.125,19.125,0,0,0-6.043-2.228,17.442,17.442,0,0,0,4.548-2.808,16.13,16.13,0,0,0,3.3-3.875,17.769,17.769,0,0,0,1.984-4.731,21.141,21.141,0,0,0,.672-5.371,22.069,22.069,0,0,0-1.526-8.423,16.166,16.166,0,0,0-4.547-6.286,20.55,20.55,0,0,0-7.538-3.907,41.662,41.662,0,0,0-11.6-1.342H337.075a4.322,4.322,0,0,0-2.655.946,3.92,3.92,0,0,0-1.252,3.326v70.435a3.919,3.919,0,0,0,1.252,3.326,4.322,4.322,0,0,0,2.655.946h20.63a43.543,43.543,0,0,0,7.9-.641,31.052,31.052,0,0,0,6.469-1.922,23.8,23.8,0,0,0,5.432-3.174,19.612,19.612,0,0,0,4.12-4.4,20.322,20.322,0,0,0,2.655-5.645,23.73,23.73,0,0,0,.946-6.867A21.488,21.488,0,0,0,384.011,347.065Zm-15.349-22.98a11.119,11.119,0,0,1-2.4,4.212,11.8,11.8,0,0,1-4.141,2.868,16.932,16.932,0,0,1-6.576,1.068H343.605V306.66h10.839a25.058,25.058,0,0,1,7.246.854,11.188,11.188,0,0,1,4.445,2.472,9.63,9.63,0,0,1,2.5,3.937,16.021,16.021,0,0,1,.791,5.188A16.4,16.4,0,0,1,368.662,324.085Zm4.364,36.774a11.663,11.663,0,0,1-3.2,4.181,14.1,14.1,0,0,1-4.721,2.533,20.7,20.7,0,0,1-6.274.854H343.605V340.6h12.549a29.951,29.951,0,0,1,8.192.946,14.578,14.578,0,0,1,5.422,2.777,11.824,11.824,0,0,1,3.289,4.517,16,16,0,0,1,1.127,6.226A13.672,13.672,0,0,1,373.026,360.859Zm69-14.069a20.041,20.041,0,0,0-4.09-5.981,27.574,27.574,0,0,0-5.768-4.4q-3.235-1.86-6.591-3.418t-6.592-3.082a36.051,36.051,0,0,1-5.768-3.357,15.582,15.582,0,0,1-4.059-4.211,10.3,10.3,0,0,1-1.526-5.677,11.534,11.534,0,0,1,.794-4.272,9.316,9.316,0,0,1,2.38-3.479,11.764,11.764,0,0,1,4.028-2.35,16.859,16.859,0,0,1,5.738-.885,21.421,21.421,0,0,1,6.378.885,30.99,30.99,0,0,1,4.913,1.953q2.075,1.069,3.51,1.923a4.9,4.9,0,0,0,2.106.854,1.171,1.171,0,0,0,.762-0.274,1.75,1.75,0,0,0,.519-0.855,7.476,7.476,0,0,0,.275-1.434,18.552,18.552,0,0,0,.091-1.953q0-1.159-.061-1.892a8.832,8.832,0,0,0-.183-1.252,3.489,3.489,0,0,0-.3-0.854,4.723,4.723,0,0,0-.763-0.916,10.863,10.863,0,0,0-2.411-1.525,27.877,27.877,0,0,0-4.181-1.709,35.9,35.9,0,0,0-5-1.221,31.062,31.062,0,0,0-5.28-.458,32.088,32.088,0,0,0-9.552,1.373,22.346,22.346,0,0,0-7.629,4,18.16,18.16,0,0,0-5,6.5,20.7,20.7,0,0,0-1.8,8.82,19.987,19.987,0,0,0,1.557,8.27,20.68,20.68,0,0,0,4.058,6.012,27.69,27.69,0,0,0,5.677,4.456,71.185,71.185,0,0,0,6.53,3.448q3.357,1.557,6.562,3.052a35.423,35.423,0,0,1,5.706,3.3,15.4,15.4,0,0,1,4.029,4.181A10.419,10.419,0,0,1,432.6,356.1a13.4,13.4,0,0,1-1.1,5.554,11.189,11.189,0,0,1-3.143,4.12,14.715,14.715,0,0,1-4.883,2.594,20.275,20.275,0,0,1-6.256.916,26.953,26.953,0,0,1-7.965-1.068,39.152,39.152,0,0,1-5.89-2.289,37.718,37.718,0,0,1-4-2.259,4.989,4.989,0,0,0-2.411-1.037,1.656,1.656,0,0,0-.854.214,1.588,1.588,0,0,0-.611.762,5.4,5.4,0,0,0-.366,1.435,16.687,16.687,0,0,0-.122,2.228,10.946,10.946,0,0,0,.336,3.021,4.468,4.468,0,0,0,1.037,1.861,11.809,11.809,0,0,0,2.5,1.77,29.007,29.007,0,0,0,4.455,2.015,40.3,40.3,0,0,0,6.043,1.647,37.811,37.811,0,0,0,7.355.672,35.537,35.537,0,0,0,10.589-1.526,24.6,24.6,0,0,0,8.545-4.547,21.227,21.227,0,0,0,5.676-7.355,22.907,22.907,0,0,0,2.045-9.888A19.686,19.686,0,0,0,442.025,346.79Zm57.4,23.651a4.248,4.248,0,0,0-.4-1.373,2.186,2.186,0,0,0-.671-0.793,1.623,1.623,0,0,0-.946-0.275h-28.32V299.7a1.51,1.51,0,0,0-.244-0.855,1.646,1.646,0,0,0-.855-0.58,9.317,9.317,0,0,0-1.617-.366,20.932,20.932,0,0,0-5.036,0,9.3,9.3,0,0,0-1.648.366,1.63,1.63,0,0,0-.854.58,1.5,1.5,0,0,0-.244.855v73.12a3.919,3.919,0,0,0,1.251,3.326,4.322,4.322,0,0,0,2.655.946h34.912a1.622,1.622,0,0,0,.946-0.274,2.107,2.107,0,0,0,.671-0.855,4.975,4.975,0,0,0,.4-1.4,14.349,14.349,0,0,0,.122-2.044A15.062,15.062,0,0,0,499.428,370.441Z"/>
  <path class="cls-2" d="M104,380L346,15l44,65-32,46-15-18L159,380m51,0,61,1L455,111,635,380l61-1L450,19ZM410,204l30-47L587,379H529Z"/>
</svg>
