<svg xmlns="http://www.w3.org/2000/svg" width="800" height="800" viewBox="100 100 800 800">
  <defs>
    <style>
      .cls-1 {
        fill: #27009b;
        stroke: #000;
        stroke-width: 2px;
      }

      .cls-1, .cls-2 {
        fill-rule: evenodd;
      }
    </style>
  </defs>
  <path class="cls-1" d="M204,620L446,255l44,65-32,46-15-18L259,620m51,0,61,1L555,351,735,620l61-1L550,259ZM510,444l30-47L687,619H629Z"/>
  <path id="Sound_light_equipment" data-name="Sound &amp; light equipment" class="cls-2" d="M155.088,664.036a7.568,7.568,0,0,0-7.583-7.583H120.671a7.568,7.568,0,0,0-7.583,7.583v8.984a7.568,7.568,0,0,0,7.583,7.583h26.834a1.3,1.3,0,0,1,1.283,1.284v8.983a1.294,1.294,0,0,1-1.283,1.283H120.671a1.294,1.294,0,0,1-1.283-1.283v-2.45h-6.3v2.45a7.568,7.568,0,0,0,7.583,7.583h26.834a7.568,7.568,0,0,0,7.583-7.583v-8.983a7.568,7.568,0,0,0-7.583-7.584H120.671a1.294,1.294,0,0,1-1.283-1.283v-8.984a1.294,1.294,0,0,1,1.283-1.283h26.834a1.294,1.294,0,0,1,1.283,1.283v2.45h6.3v-2.45Zm13.533,0.584a7.568,7.568,0,0,0-7.583,7.583V690.87a7.568,7.568,0,0,0,7.583,7.583h19.25a7.569,7.569,0,0,0,7.584-7.583V672.2a7.569,7.569,0,0,0-7.584-7.583h-19.25Zm19.25,6.3a1.3,1.3,0,0,1,1.284,1.283V690.87a1.3,1.3,0,0,1-1.284,1.283h-19.25a1.294,1.294,0,0,1-1.283-1.283V672.2a1.294,1.294,0,0,1,1.283-1.283h19.25Zm40.892-6.3v26.25a1.294,1.294,0,0,1-1.283,1.283H208.229a1.294,1.294,0,0,1-1.283-1.283V664.62h-6.3v26.25a7.568,7.568,0,0,0,7.583,7.583H227.48a7.568,7.568,0,0,0,7.583-7.583V664.62h-6.3Zm39.317,0H241.246v33.833h6.3V672.2a1.294,1.294,0,0,1,1.283-1.283H268.08a1.294,1.294,0,0,1,1.283,1.283v26.25h6.3V672.2A7.568,7.568,0,0,0,268.08,664.62Zm40.075-11.084V664.62H287.621a7.568,7.568,0,0,0-7.583,7.583V690.87a7.568,7.568,0,0,0,7.583,7.583h26.834V653.536h-6.3Zm-20.534,38.617a1.294,1.294,0,0,1-1.283-1.283V672.2a1.294,1.294,0,0,1,1.283-1.283h19.25a1.3,1.3,0,0,1,1.284,1.283V690.87a1.3,1.3,0,0,1-1.284,1.283h-19.25Zm91.992-4.258V678.27h-6.3v7.175L346.246,671.8v-7.7a1.3,1.3,0,0,1,1.283-1.284H370.28a1.3,1.3,0,0,1,1.283,1.284v2.8h6.3v-4.142a7.757,7.757,0,0,0-7.583-6.3H347.529a7.568,7.568,0,0,0-7.583,7.583V670.1c0,1.633.233,3.5,1.458,4.433-2.508,0-3.791,2.8-3.791,4.434v11.9a7.568,7.568,0,0,0,7.583,7.583H372.03a7.455,7.455,0,0,0,7-4.725l7.992,4.55v-6.066ZM345.2,692.153a1.294,1.294,0,0,1-1.283-1.283v-11.9a1.3,1.3,0,0,1,1.283-1.284h0.642l27.3,13.767a1.235,1.235,0,0,1-1.108.7H345.2Zm63.992-19.95h0V690.87a7.568,7.568,0,0,0,7.583,7.583h6.3v-6.3h-6.3a1.294,1.294,0,0,1-1.283-1.283V653.536h-6.3V672.2Zm18.2,26.25h6.3V664.62h-6.3v33.833Zm0-44.917v6.3h6.3v-6.3h-6.3ZM473.3,685.562V672.2a7.569,7.569,0,0,0-7.584-7.583h-19.25a7.569,7.569,0,0,0-7.584,7.583V690.87a7.569,7.569,0,0,0,7.584,7.583H467v5.834a1.294,1.294,0,0,1-1.283,1.283H444.829v6.3h20.884a7.569,7.569,0,0,0,7.584-7.583V685.562Zm-26.834,6.591a1.3,1.3,0,0,1-1.284-1.283V672.2a1.3,1.3,0,0,1,1.284-1.283h19.25A1.294,1.294,0,0,1,467,672.2V690.87a1.294,1.294,0,0,1-1.283,1.283h-19.25Zm59.85-27.533H485.779V653.536h-6.3v44.917h6.3V672.2a1.3,1.3,0,0,1,1.284-1.283h19.25A1.294,1.294,0,0,1,507.6,672.2v26.25h6.3V672.2A7.606,7.606,0,0,0,506.313,664.62Zm32.258,6.3v-6.3H524.688V653.536h-6.3V672.2h0V690.87a7.568,7.568,0,0,0,7.583,7.583h12.6v-6.3h-12.6a1.294,1.294,0,0,1-1.283-1.283V670.92h13.883Zm47.367-6.3h-19.25A7.569,7.569,0,0,0,559.1,672.2V690.87a7.569,7.569,0,0,0,7.584,7.583h26.834v-6.3H566.688a1.3,1.3,0,0,1-1.284-1.283v-6.183h28.118V672.2A7.569,7.569,0,0,0,585.938,664.62ZM565.4,678.386V672.2a1.3,1.3,0,0,1,1.284-1.283h19.25a1.294,1.294,0,0,1,1.283,1.283v6.183H565.4Zm32.259-6.183V690.87a7.568,7.568,0,0,0,7.583,7.583H625.78V711.87h6.3V664.62H605.246A7.568,7.568,0,0,0,597.663,672.2Zm6.3,0a1.294,1.294,0,0,1,1.283-1.283H624.5a1.3,1.3,0,0,1,1.284,1.283V690.87a1.3,1.3,0,0,1-1.284,1.283h-19.25a1.294,1.294,0,0,1-1.283-1.283V672.2Zm62.475-7.583v26.25a1.294,1.294,0,0,1-1.283,1.283H645.9a1.294,1.294,0,0,1-1.283-1.283V664.62h-6.3v26.25a7.568,7.568,0,0,0,7.583,7.583h19.251a7.568,7.568,0,0,0,7.583-7.583V664.62h-6.3ZM678.8,698.453h6.3V664.62h-6.3v33.833Zm0-44.917v6.3h6.3v-6.3h-6.3Zm38.151,11.084H690.121v47.25h6.3V698.453h20.534a7.568,7.568,0,0,0,7.583-7.583V672.2A7.568,7.568,0,0,0,716.955,664.62Zm1.283,26.25a1.294,1.294,0,0,1-1.283,1.283H697.7a1.294,1.294,0,0,1-1.283-1.283V672.2a1.294,1.294,0,0,1,1.283-1.283h19.251a1.294,1.294,0,0,1,1.283,1.283V690.87Zm53.842-26.25H728.854v33.833h6.3V672.2a1.3,1.3,0,0,1,1.284-1.283h13.417a1.294,1.294,0,0,1,1.283,1.283v26.25h6.3V672.2a1.294,1.294,0,0,1,1.283-1.283H772.08a1.308,1.308,0,0,1,1.342,1.283v26.25h6.242V672.2A7.569,7.569,0,0,0,772.08,664.62Zm40.483,0h-19.25a7.569,7.569,0,0,0-7.584,7.583V690.87a7.569,7.569,0,0,0,7.584,7.583h26.834v-6.3H793.313a1.3,1.3,0,0,1-1.284-1.283v-6.183h28.118V672.2A7.569,7.569,0,0,0,812.563,664.62Zm-20.534,13.766V672.2a1.3,1.3,0,0,1,1.284-1.283h19.25a1.294,1.294,0,0,1,1.283,1.283v6.183H792.029Zm61.076-13.766H826.271v33.833h6.3V672.2a1.294,1.294,0,0,1,1.283-1.283h19.251a1.294,1.294,0,0,1,1.283,1.283v26.25h6.3V672.2A7.568,7.568,0,0,0,853.105,664.62ZM887,670.92v-6.3H873.113V653.536h-6.3V672.2h0V690.87a7.568,7.568,0,0,0,7.583,7.583H887v-6.3H874.4a1.294,1.294,0,0,1-1.283-1.283V670.92H887Z"/>
  <path id="BSL" class="cls-2" d="M459.7,617.435q8.41,0,13.224-2.409a17.791,17.791,0,0,0,7.7-7.728,25.546,25.546,0,0,0,2.883-12.359A21.245,21.245,0,0,0,480.318,583a17.2,17.2,0,0,0-8.716-6.856,18.037,18.037,0,0,0,6.559-6.871,19.807,19.807,0,0,0,2.329-9.62,20.93,20.93,0,0,0-2.7-10.519,17.348,17.348,0,0,0-6.937-7q-4.237-2.247-11.492-2.246H435.474v77.547H459.7Zm-15.816-68.4h12.772q6.942,0,9.619,1.058a8.575,8.575,0,0,1,4.292,3.835,13.647,13.647,0,0,1,1.617,6.956A12.508,12.508,0,0,1,470.409,568a9.623,9.623,0,0,1-5.06,3.73,27.765,27.765,0,0,1-7.685.74H443.885V549.039Zm0,32.584h14.73q6.517,0,9.564,1.4a10.8,10.8,0,0,1,4.849,4.443,14.355,14.355,0,0,1,1.8,7.433,15.2,15.2,0,0,1-1.882,7.908,10.56,10.56,0,0,1-5.484,4.522,23.191,23.191,0,0,1-7.736.953H443.885V581.623Zm55.568,30.046q7.008,7.089,18.805,7.088a27.23,27.23,0,0,0,12.933-2.853,20.971,20.971,0,0,0,8.49-8.322,24.029,24.029,0,0,0,3.121-12.127A20.279,20.279,0,0,0,531.049,576.1a81.234,81.234,0,0,0-13.217-4.517q-9.624-2.655-12.374-5.248a9.538,9.538,0,0,1-2.752-7.3,10.368,10.368,0,0,1,3.756-8.277q3.756-3.2,10.9-3.2,7.035,0,10.923,3.649t4.523,11.215l8.093-.741a26.459,26.459,0,0,0-3.147-12.325,19.929,19.929,0,0,0-8.252-8.04,26.219,26.219,0,0,0-12.4-2.8q-10.314,0-16.4,5.978t-6.083,15.393a20.379,20.379,0,0,0,2.116,9.389,18.638,18.638,0,0,0,5.924,6.85q3.81,2.7,12.8,5.367,10.1,2.991,13.144,4.627a11.346,11.346,0,0,1,4.55,4.2,11.59,11.59,0,0,1,1.507,5.991,12.12,12.12,0,0,1-4.152,9.528q-4.154,3.669-11.664,3.668a20.123,20.123,0,0,1-9.416-2.169A16.2,16.2,0,0,1,503,601.592q-2.249-3.57-2.883-9.971l-7.934.846Q492.444,604.581,499.453,611.669Zm94.025,5.766v-9.151H562.163v-68.4h-8.411v77.547h39.726Z"/>
</svg>
